<svg height="512pt" viewBox="-21 0 511 512" width="512pt" xmlns="http://www.w3.org/2000/svg"><path d="m375.964844 349.867188c-2.183594 0-4.367188-.835938-6.03125-2.5-3.335938-3.335938-3.335938-8.730469 0-12.066407l85.332031-85.332031c3.328125-3.339844 8.738281-3.339844 12.066406 0 3.335938 3.335938 3.335938 8.726562 0 12.0625l-85.332031 85.335938c-1.664062 1.664062-3.847656 2.5-6.035156 2.5zm0 0"/><path d="m461.300781 264.535156c-2.183593 0-4.371093-.839844-6.035156-2.503906l-85.332031-85.332031c-3.335938-3.335938-3.335938-8.730469 0-12.066407 3.328125-3.335937 8.738281-3.335937 12.066406 0l85.332031 85.335938c3.335938 3.335938 3.335938 8.726562 0 12.0625-1.664062 1.664062-3.847656 2.503906-6.03125 2.503906zm0 0"/><path d="m461.300781 264.535156h-290.132812c-4.710938 0-8.535157-3.824218-8.535157-8.535156s3.824219-8.535156 8.535157-8.535156h290.132812c4.710938 0 8.53125 3.824218 8.53125 8.535156s-3.820312 8.535156-8.53125 8.535156zm0 0"/><path d="m233.304688 512h-158.410157c-41.019531 0-74.394531-33.375-74.394531-74.394531v-363.210938c0-41.019531 33.375-74.394531 74.394531-74.394531h158.421875c41.007813 0 74.382813 33.375 74.382813 74.394531v130.40625c0 4.710938-3.820313 8.53125-8.53125 8.53125-4.710938 0-8.535157-3.820312-8.535157-8.53125v-130.40625c0-31.609375-25.710937-57.328125-57.328124-57.328125h-158.410157c-31.609375 0-57.328125 25.71875-57.328125 57.328125v363.210938c0 31.609375 25.71875 57.328125 57.328125 57.328125h158.421875c31.605469 0 57.316406-25.71875 57.316406-57.328125v-130.40625c0-4.710938 3.824219-8.53125 8.535157-8.53125 4.710937 0 8.53125 3.820312 8.53125 8.53125v130.414062c0 41.011719-33.375 74.386719-74.394531 74.386719zm0 0"/></svg>